<svg id="Component_169_1" data-name="Component 169 – 1" xmlns="http://www.w3.org/2000/svg" width="70" height="56" viewBox="18 0 70 56">
  <g id="Group_686" data-name="Group 686" transform="translate(-635.465 -937)">
    <path id="Path_1010" data-name="Path 1010" d="M10.83,29.45c-2.97-2.44-7.37,3.03-7.37,3.03-2.67-6.71.3-15.8.3-15.8C-1.52,10.44,2.4,1.77,2.4,1.77l13.7,9.95" transform="translate(670 945.47)" fill="none" stroke="currentColor" stroke-miterlimit="10" stroke-width="2"/>
    <path id="Path_1011" data-name="Path 1011" d="M7.98,26.83s8.17,7.84,8.32,7.84c2.57,0,5.34.01,5.23-.06,0,0,4.78-6.92,5.61-7.99" transform="translate(670 945.47)" fill="none" stroke="currentColor" stroke-miterlimit="10" stroke-width="2"/>
    <path id="Path_1012" data-name="Path 1012" d="M2.4,1.77S11.27,4.5,13.94,6.11" transform="translate(670 945.47)" fill="none" stroke="currentColor" stroke-miterlimit="10" stroke-width="2"/>
    <path id="Path_1013" data-name="Path 1013" d="M25.85,29.21c2.97-2.44,7.37,3.03,7.37,3.03,2.67-6.71-.3-15.8-.3-15.8,5.29-6.24,1.37-14.91,1.37-14.91l-13.7,9.95" transform="translate(670 945.47)" fill="none" stroke="currentColor" stroke-miterlimit="10" stroke-width="2"/>
    <path id="Path_1014" data-name="Path 1014" d="M34.28,1.53S25.41,4.26,22.74,5.87" transform="translate(670 945.47)" fill="none" stroke="currentColor" stroke-miterlimit="10" stroke-width="2"/>
    <path id="Path_1015" data-name="Path 1015" d="M15.9,28.65a11.791,11.791,0,0,1,5.21-.04l-2.58,1.92L15.9,28.66Z" transform="translate(670 945.47)" fill="none" stroke="currentColor" stroke-miterlimit="10" stroke-width="2"/>
    <ellipse id="Ellipse_183" data-name="Ellipse 183" cx="0.72" cy="0.82" rx="0.72" ry="0.82" transform="translate(683.141 965.76)" fill="none" stroke="currentColor" stroke-miterlimit="10" stroke-width="2"/>
    <ellipse id="Ellipse_184" data-name="Ellipse 184" cx="0.72" cy="0.82" rx="0.72" ry="0.82" transform="translate(691.879 965.65)" fill="none" stroke="currentColor" stroke-miterlimit="10" stroke-width="2"/>
    <path id="Path_1016" data-name="Path 1016" d="M13.03,5.97s5.83-2.35,10.65,0" transform="translate(670 945.47)" fill="none" stroke="currentColor" stroke-miterlimit="10" stroke-width="2"/>
  </g>
</svg>
